<svg width="31" height="32" viewBox="0 0 31 32" fill="none" xmlns="http://www.w3.org/2000/svg">
    <path d="M5.87489 27.6461C6.17665 27.8951 6.41826 28.0821 6.72003 28.3311C7.04853 28.5798 7.39171 28.8072 7.74759 29.0121C8.09736 29.2234 8.46041 29.4105 8.83434 29.5721C9.1613 29.7561 9.50643 29.9036 9.86384 30.0121C11.8894 30.8255 14.0625 31.1745 16.2322 31.0348C18.4018 30.8951 20.5159 30.27 22.4274 29.2031C22.5806 29.1441 22.7235 29.0601 22.8505 28.9541C22.8818 28.9517 22.9113 28.9378 22.9334 28.9148C22.9555 28.8918 22.9688 28.8614 22.9708 28.8291C23.2124 28.7051 23.3939 28.5181 23.6355 28.3931C23.6956 28.3311 23.8169 28.2691 23.8771 28.2061C25.7096 26.9139 27.2366 25.2136 28.3452 23.2309C29.4537 21.2482 30.1154 19.034 30.2812 16.7521V16.4411C30.2812 16.1921 30.3413 15.8811 30.3413 15.6321V14.9471C30.2786 12.7118 29.7431 10.5177 28.7722 8.51791C27.8014 6.51811 26.4185 4.76091 24.7203 3.36906C24.4185 3.12006 24.1769 2.93306 23.8752 2.68406C23.5471 2.434 23.2042 2.20523 22.8486 1.99906C22.4988 1.7877 22.1357 1.60062 21.7618 1.43906C21.4344 1.2563 21.0889 1.11013 20.7313 1.00306C18.7085 0.21576 16.545 -0.113929 14.3877 0.0363541C12.2303 0.186637 10.1295 0.813378 8.22789 1.87406C8.07475 1.93297 7.93188 2.01706 7.80484 2.12306C7.77367 2.12538 7.74436 2.13918 7.72226 2.16196C7.70017 2.18473 7.68677 2.21494 7.68452 2.24706C7.45444 2.37811 7.23246 2.52372 7.01985 2.68306C6.95969 2.74506 6.83841 2.80706 6.77825 2.87006C4.94576 4.1622 3.41873 5.86254 2.31019 7.84523C1.20165 9.82791 0.539984 12.0422 0.374183 14.3241V14.6351C0.272187 14.8695 0.232022 15.1275 0.257746 15.3831V16.0681C0.333276 18.3003 0.874011 20.4896 1.84323 22.4873C2.81245 24.4851 4.18746 26.2445 5.87489 27.6461ZM8.04935 27.2121L8.65289 26.1541C8.84585 26.292 9.04747 26.4166 9.25642 26.5271C9.43787 26.6521 9.67948 26.7141 9.85996 26.8381L9.25642 27.8961C9.07498 27.7721 8.83337 27.7091 8.65289 27.5851C8.47241 27.4611 8.2308 27.3351 8.04935 27.2121ZM21.4581 27.8971L20.8546 26.8391C21.036 26.7151 21.2776 26.6521 21.4581 26.5281C21.6511 26.3901 21.8527 26.2655 22.0616 26.1551L22.6652 27.2131C22.5319 27.3094 22.3903 27.3927 22.2421 27.4621C22.0005 27.5861 21.8191 27.7111 21.5775 27.8351C21.545 27.8678 21.5031 27.8888 21.4581 27.8951V27.8971ZM28.7665 16.2561H27.5594C27.5594 16.0071 27.6196 15.7561 27.6196 15.5711C27.6325 15.3409 27.6122 15.1101 27.5594 14.8861H28.7675V15.8201C28.8276 15.9431 28.7675 16.1301 28.7675 16.2541L28.7665 16.2561ZM22.6661 3.92906L22.0626 4.98706C21.8697 4.84911 21.668 4.7245 21.4591 4.61406C21.252 4.52296 21.0505 4.4191 20.8555 4.30306L21.4591 3.24506C21.6405 3.36906 21.8821 3.43206 22.0626 3.55606C22.2431 3.68006 22.4857 3.80506 22.6661 3.92906ZM9.25739 3.24406L9.86384 4.30306C9.68239 4.42706 9.44078 4.49006 9.2603 4.61406C9.06735 4.752 8.86573 4.87661 8.65677 4.98706L8.04935 3.92906C8.18258 3.83273 8.32421 3.74937 8.47241 3.68006C8.71402 3.55606 8.89547 3.43106 9.13708 3.30706C9.16939 3.27302 9.21167 3.25088 9.25739 3.24406ZM1.949 14.8851H3.15704C3.15704 15.1341 3.09688 15.3851 3.09688 15.5701C3.084 15.8002 3.10427 16.031 3.15704 16.2551H1.949V15.3211C1.88884 15.1961 1.949 15.0121 1.949 14.8851ZM2.13045 17.9351H4.06331C4.78813 17.9351 4.84829 17.3131 4.84829 16.9351C4.80092 16.7102 4.78072 16.4801 4.78814 16.2501C4.78814 16.0011 4.72798 15.7501 4.72798 15.5651C4.71509 15.3349 4.73537 15.1041 4.78814 14.8801C4.78814 14.6311 4.84829 14.3801 4.84829 14.1951C4.88309 14.0737 4.88875 13.9454 4.86478 13.8213C4.84081 13.6972 4.78793 13.5809 4.7107 13.4825C4.63347 13.3841 4.53419 13.3066 4.42141 13.2565C4.30864 13.2064 4.18575 13.1853 4.06331 13.1951H2.13045C2.64211 9.97511 4.27395 7.05734 6.721 4.98706L7.32453 6.04506L7.68646 6.73006C7.74111 6.83918 7.82012 6.93338 7.91698 7.00491C8.01383 7.07644 8.12578 7.12325 8.24362 7.14151C8.36145 7.15976 8.48181 7.14893 8.59479 7.10991C8.70777 7.07089 8.81016 7.0048 8.89353 6.91706C9.07498 6.79306 9.25545 6.60606 9.4369 6.48106C9.62986 6.34311 9.83148 6.2185 10.0404 6.10806C10.2288 5.97988 10.4314 5.87547 10.644 5.79706C10.8602 5.68168 11.082 5.57788 11.3086 5.48606C11.4235 5.45268 11.529 5.39175 11.6167 5.30826C11.7043 5.22476 11.7715 5.12108 11.8127 5.00568C11.854 4.89029 11.8682 4.76646 11.8541 4.64434C11.84 4.52222 11.7981 4.40527 11.7317 4.30306L11.3698 3.61806L10.7662 2.56006C13.7507 1.43937 17.023 1.43937 20.0075 2.56006L19.404 3.61806L18.9809 4.30306C18.9145 4.40527 18.8726 4.52222 18.8585 4.64434C18.8444 4.76646 18.8586 4.89029 18.8999 5.00568C18.9411 5.12108 19.0083 5.22476 19.0959 5.30826C19.1835 5.39175 19.2891 5.45268 19.404 5.48606C19.6362 5.56356 19.8591 5.66789 20.0686 5.79706C20.2501 5.92106 20.4917 5.98406 20.6721 6.10806C20.8651 6.246 21.0667 6.37061 21.2757 6.48106C21.471 6.60658 21.6531 6.7527 21.8191 6.91706C21.9024 7.005 22.0049 7.07128 22.118 7.11042C22.2311 7.14956 22.3515 7.16045 22.4695 7.14219C22.5875 7.12393 22.6996 7.07704 22.7965 7.00538C22.8934 6.93373 22.9725 6.83936 23.0271 6.73006L23.389 6.04506L23.9926 4.98706C26.4103 7.08658 28.0352 9.99505 28.5831 13.2041H26.6502C25.9254 13.2041 25.8653 13.8261 25.8653 14.2041C25.9126 14.429 25.9328 14.659 25.9254 14.8891C25.9254 15.1381 25.9856 15.3891 25.9856 15.5741C25.9985 15.8042 25.9782 16.035 25.9254 16.2591C25.9254 16.5081 25.8653 16.7591 25.8653 16.9441C25.8305 17.0654 25.8248 17.1937 25.8488 17.3178C25.8727 17.4419 25.9256 17.5582 26.0029 17.6566C26.0801 17.755 26.1794 17.8325 26.2921 17.8826C26.4049 17.9327 26.5278 17.9538 26.6502 17.9441H28.5831C28.0734 21.1673 26.4414 24.0885 23.9926 26.1611L23.389 25.1031L23.0271 24.4181C22.9725 24.3088 22.8934 24.2144 22.7965 24.1427C22.6996 24.0711 22.5875 24.0242 22.4695 24.0059C22.3515 23.9877 22.2311 23.9985 22.118 24.0377C22.0049 24.0768 21.9024 24.1431 21.8191 24.2311C21.6376 24.3551 21.4571 24.5421 21.2757 24.6671C21.0827 24.805 20.8811 24.9296 20.6721 25.0401C20.4838 25.1682 20.2811 25.2727 20.0686 25.3511C19.8524 25.4664 19.6305 25.5702 19.404 25.6621C19.2891 25.6954 19.1835 25.7564 19.0959 25.8399C19.0083 25.9233 18.9411 26.027 18.8999 26.1424C18.8586 26.2578 18.8444 26.3816 18.8585 26.5038C18.8726 26.6259 18.9145 26.7428 18.9809 26.8451L19.3428 27.5301L19.9464 28.5881C16.9619 29.7087 13.6896 29.7087 10.7051 28.5881L11.3086 27.5301L11.6706 26.8451C11.7369 26.7428 11.7789 26.6259 11.793 26.5038C11.807 26.3816 11.7929 26.2578 11.7516 26.1424C11.7103 26.027 11.6431 25.9233 11.5555 25.8399C11.4679 25.7564 11.3624 25.6954 11.2475 25.6621C11.0153 25.5845 10.7923 25.4802 10.5828 25.3511C10.4014 25.2271 10.1598 25.1641 9.97931 25.0401C9.78635 24.9021 9.58473 24.7775 9.37577 24.6671C9.18047 24.5415 8.99836 24.3954 8.8324 24.2311C8.74903 24.1431 8.64659 24.0768 8.5335 24.0377C8.42041 23.9985 8.29991 23.9877 8.18194 24.0059C8.06397 24.0242 7.95189 24.0711 7.85495 24.1427C7.75801 24.2144 7.67897 24.3088 7.62436 24.4181L7.26243 25.1031L6.66181 26.1521C4.26906 24.0404 2.66645 21.1343 2.13045 17.9351Z" fill="#6A7787"/>
    <path d="M20.1928 11.511C20.0379 11.56 19.8985 11.6507 19.789 11.7738C19.6795 11.8968 19.6039 12.0478 19.5699 12.211L17.6477 13.389C17.3562 13.0652 17.0028 12.8071 16.6096 12.6312C16.2165 12.4553 15.7922 12.3653 15.3636 12.367C15.0454 12.3682 14.7295 12.4226 14.4282 12.528L13.2852 10.547C13.3371 10.3543 13.3371 10.1507 13.2852 9.95803C13.1951 9.69533 13.0075 9.48027 12.7635 9.36015C12.5196 9.24003 12.2394 9.2247 11.9845 9.31753C11.7296 9.41035 11.5209 9.60373 11.4043 9.85512C11.2878 10.1065 11.2729 10.3953 11.363 10.658C11.4105 10.8177 11.4985 10.9613 11.6179 11.0742C11.7373 11.187 11.8838 11.265 12.0422 11.3L13.1852 13.281C12.8853 13.5783 12.6476 13.9358 12.4867 14.3313C12.3259 14.7269 12.2452 15.1522 12.2499 15.581C12.251 15.909 12.3037 16.2345 12.4061 16.545L10.4839 17.723C10.2215 17.6529 9.94291 17.6913 9.70763 17.83C9.48027 17.9649 9.3142 18.1873 9.24597 18.4484C9.17773 18.7094 9.21291 18.9877 9.34377 19.222C9.47463 19.4563 9.69044 19.6275 9.94375 19.6978C10.197 19.7681 10.4671 19.7319 10.6944 19.597C10.8129 19.5314 10.9162 19.44 10.9969 19.3291C11.0777 19.2183 11.1341 19.0906 11.1621 18.955L13.0843 17.777C13.3759 18.0988 13.7289 18.355 14.1211 18.5295C14.5134 18.704 14.9364 18.793 15.3636 18.791C15.6818 18.7899 15.9977 18.7355 16.299 18.63L17.442 20.611C17.3739 20.8814 17.4112 21.1686 17.5458 21.411C17.6767 21.6453 17.8925 21.8165 18.1458 21.8868C18.3991 21.9571 18.6691 21.9209 18.8965 21.786C19.1239 21.6512 19.2899 21.4287 19.3582 21.1677C19.4264 20.9066 19.3912 20.6283 19.2604 20.394C19.1967 20.2719 19.108 20.1655 19.0004 20.0823C18.8928 19.9991 18.769 19.941 18.6374 19.912L17.4944 17.931C17.808 17.63 18.0576 17.2652 18.2275 16.8597C18.3973 16.4541 18.4837 16.0167 18.4812 15.575C18.4801 15.2471 18.4273 14.9215 18.325 14.611L20.2472 13.433C20.4341 13.4866 20.6317 13.4866 20.8187 13.433C21.069 13.3347 21.2732 13.141 21.3891 12.8921C21.505 12.6431 21.5238 12.3578 21.4416 12.095C21.3976 11.9716 21.3303 11.8584 21.2434 11.762C21.1566 11.6656 21.052 11.588 20.9358 11.5337C20.8196 11.4793 20.6941 11.4493 20.5665 11.4455C20.439 11.4416 20.3119 11.4639 20.1928 11.511ZM16.7637 16.596C16.6227 16.7962 16.4445 16.9654 16.2394 17.094C16.0344 17.2226 15.8066 17.3079 15.5693 17.345L15.154 16.596L14.3777 17.024C14.1836 16.8787 14.0193 16.695 13.8946 16.4837C13.7698 16.2723 13.687 16.0376 13.651 15.793L14.3777 15.365L13.9625 14.565C14.1035 14.3649 14.2817 14.1956 14.4868 14.0671C14.6918 13.9385 14.9196 13.8532 15.1569 13.816L15.5722 14.565L16.3485 14.137C16.5426 14.2824 16.7069 14.4661 16.8316 14.6774C16.9564 14.8887 17.0392 15.1235 17.0752 15.368L16.3485 15.796L16.7637 16.596Z" fill="#6A7787"/>
    </svg>
    