<svg width="31" height="27" viewBox="0 0 31 27" fill="none" xmlns="http://www.w3.org/2000/svg">
    <path
      d="M29.9721 6.074L26.0026 1.364V1.3C25.7704 0.905426 25.444 0.578757 25.0545 0.351173C24.665 0.123589 24.2254 0.00268443 23.7777 0H6.81758C6.36984 0.00268443 5.93023 0.123589 5.54073 0.351173C5.15122 0.578757 4.82481 0.905426 4.59265 1.3L0.623105 6.074C0.354724 6.55196 0.228731 7.10075 0.260823 7.65198C0.292915 8.20322 0.481674 8.73254 0.803583 9.174L13.2527 25.909C13.4907 26.2362 13.7995 26.5019 14.1544 26.6848C14.5094 26.8678 14.9008 26.963 15.2976 26.963C15.6945 26.963 16.0859 26.8678 16.4408 26.6848C16.7958 26.5019 17.1045 26.2362 17.3426 25.909L29.7917 9.235C30.1129 8.78149 30.3007 8.24232 30.3327 7.68183C30.3647 7.12134 30.2395 6.5632 29.9721 6.074ZM24.4414 2.293L28.2877 6.632H21.5518L17.2824 1.859H23.7175C23.8653 1.85393 24.0115 1.89197 24.1392 1.96875C24.2669 2.04554 24.371 2.15793 24.4394 2.293H24.4414ZM15.2971 23.119L10.6668 8.429H19.9886L15.2971 23.119ZM11.4489 6.632L15.2981 2.293L19.1473 6.632H11.4489ZM6.15583 2.293C6.22781 2.17444 6.32458 2.07394 6.43907 1.99885C6.55356 1.92377 6.68288 1.87598 6.81758 1.859H13.2527L8.98332 6.632H2.36676L6.15583 2.293ZM2.42692 8.429H8.74171L13.4332 23.18L2.42692 8.429ZM17.1621 23.181L21.8535 8.43H28.1683L17.1621 23.181Z"
      fill="#6A7787" />
  </svg>